# xmcd
#
# Track frame offsets:
#	150
#	14379
#	29884
#	44059
#	60019
#	75376
#	90724
#	108064
#	122643
#	137871
#	152918
#	167804
#	185117
#	202868
#	218132
#	232002
#
# Disc length: 3362 seconds
#
# Revision: 2
# Processed by: cddbd v1.5.2PL0 Copyright (c) Steve Scherf et al.
# Submitted via: audiograbber 1.83.01
#
DISCID=d90d2010
DTITLE=Various Artist - Party Tyme Karaoke - Country Hits 17
DYEAR=2017
DGENRE=Karaoke
TTITLE0=Sam Hunt - House Party
TTITLE1=Carrie Underwood - Smoke Break
TTITLE2=Chris Janson - Buy Me A Boat
TTITLE3=Luke Bryan - Kick The Dust Up
TTITLE4=Kelsea Ballerini - Love Me Like You Mean It
TTITLE5=Canaan Smith - Love You Like That
TTITLE6=Cam - Burning House
TTITLE7=Cole Swindell - Ain't Worth The Whiskey
TTITLE8=Florida Georgia Line - Sun Daze
TTITLE9=Jana Kramer - I Got The Boy
TTITLE10=Luke Bryan - I See You
TTITLE11=Reba McEntire - Going Out Like That
TTITLE12=Blake Shelton - Sangria
TTITLE13=Kacey Musgraves - Biscuits
TTITLE14=Michael Ray - Kiss You In The Morning
TTITLE15=Miranda Lambert - Roots And Wings
EXTD=
EXTT0=
EXTT1=
EXTT2=
EXTT3=
EXTT4=
EXTT5=
EXTT6=
EXTT7=
EXTT8=
EXTT9=
EXTT10=
EXTT11=
EXTT12=
EXTT13=
EXTT14=
EXTT15=
PLAYORDER=
